<svg height='100px' width='100px'  fill="#000000" xmlns="http://www.w3.org/2000/svg" xmlns:xlink="http://www.w3.org/1999/xlink" version="1.1" x="0px" y="0px" viewBox="0 0 160 160" style="enable-background:new 0 0 160 160;" xml:space="preserve"><path d="M25.517,141.725c0,1.678,1.364,3.042,3.042,3.042c1.677,0,3.041-1.364,3.041-3.042c0-1.677-1.364-3.041-3.041-3.041  S25.517,140.048,25.517,141.725z"></path><path d="M39.017,141.725c0,1.678,1.364,3.042,3.042,3.042c1.677,0,3.041-1.364,3.041-3.042c0-1.677-1.364-3.041-3.041-3.041  C40.382,138.684,39.017,140.048,39.017,141.725z"></path><path d="M148.14,141.51c-2.13,0-3.21-0.69-3.21-2.06v-4.06c0-0.92-0.36-1.8-1.01-2.45l-4.73-4.79l3.9-6.81  c0.62-1.08,0.62-2.42-0.01-3.5l-17.51-30.13c-0.44-0.76-0.22-1.74,0.51-2.23c0.65-0.44,1.53-0.36,2.09,0.18l4.22,4.03  c3.18,3.03,8.11,3.19,11.47,0.37l2.5-2.1c0.79-0.66,1.25-1.64,1.25-2.68v-6.09c0-0.8-0.27-1.57-0.77-2.19L129.1,55.03  c-0.66-0.83-1.66-1.3-2.72-1.3h-1.97v-4.8c0-1.31-0.74-2.52-1.91-3.12c-1.17-0.59-2.58-0.48-3.65,0.29l-2.16,1.57l-7,5.09  l-1.63,1.18c-11.11,8.07-17.74,21.08-17.74,34.81v31.2c0,0.62,0.16,1.22,0.47,1.75l3.27,5.69l0.43,0.74l-4.75,4.81  c-0.1,0.1-0.19,0.21-0.28,0.32c-0.08,0.11-0.15,0.21-0.22,0.33c-0.01,0.02-0.03,0.04-0.03,0.06c-0.01,0.01-0.02,0.03-0.03,0.05  c-0.04,0.07-0.09,0.15-0.12,0.23c-0.08,0.15-0.13,0.3-0.18,0.46c-0.1,0.32-0.15,0.66-0.15,1v4.06c0,1.37-1.07,2.06-3.2,2.06  c-1.93,0-3.5,1.57-3.5,3.5v3.03H15.36v-13.65h70.96c0.2-1.21,0.77-2.32,1.64-3.21l3.41-3.45l-0.2-0.34H66.02V33.06h43.67v16.61  l7-5.09V29.56c0-0.01,0-0.01,0-0.02V8.46c0-1.93-1.57-3.5-3.5-3.5H11.86c-1.93,0-3.5,1.57-3.5,3.5v143.08c0,1.93,1.56,3.5,3.5,3.5  h136.28c1.93,0,3.5-1.57,3.5-3.5v-6.53C151.64,143.08,150.07,141.51,148.14,141.51z M15.36,11.96h94.33v14.1H62.52  c0,0-0.01,0-0.02,0H15.36V11.96z M15.36,33.06h43.66v94.33H15.36V33.06z M97.32,88.75c0-1.37,0.08-2.73,0.24-4.08  c1.02-8.91,5.36-17.19,12.13-23.09c0.8-0.7,1.62-1.36,2.48-1.98l4.52-3.28l0.72-0.52v1.43c0,1.93,1.57,3.5,3.5,3.5h3.8l15.9,19.7  v3.22l-1.24,1.04c-0.63,0.53-1.55,0.5-2.15-0.07l-4.21-4.03c-2.93-2.79-7.49-3.18-10.84-0.91c-3.77,2.54-4.94,7.61-2.65,11.54  l16.49,28.39l-3.19,5.58h-31.94l-2.79-4.84l-0.77-1.33C97.32,119.02,97.32,88.75,97.32,88.75z M95.73,136.83l2.41-2.44l2.17-2.2  h33.04l4.58,4.64v1.68h-42.2C95.73,138.51,95.73,136.83,95.73,136.83z M89.11,148.04c2.77-0.79,4.63-2.51,5.66-4.53h44.13  c1.03,2.02,2.89,3.74,5.66,4.53H89.11z"></path><path d="M76.761,41.835c0-1.381-1.119-2.5-2.5-2.5s-2.5,1.119-2.5,2.5v8.113c0,1.381,1.119,2.5,2.5,2.5s2.5-1.119,2.5-2.5V41.835z"></path><path d="M85.49,41.835c0-1.381-1.119-2.5-2.5-2.5s-2.5,1.119-2.5,2.5v8.113c0,1.381,1.119,2.5,2.5,2.5s2.5-1.119,2.5-2.5V41.835z"></path><path d="M101.454,39.335h-7.75c-1.381,0-2.5,1.119-2.5,2.5s1.119,2.5,2.5,2.5h7.75c1.381,0,2.5-1.119,2.5-2.5  S102.835,39.335,101.454,39.335z"></path><path d="M101.454,47.352h-7.75c-1.381,0-2.5,1.119-2.5,2.5s1.119,2.5,2.5,2.5h7.75c1.381,0,2.5-1.119,2.5-2.5  S102.835,47.352,101.454,47.352z"></path><path d="M76.761,87.169c0-1.381-1.119-2.5-2.5-2.5s-2.5,1.119-2.5,2.5v8.113c0,1.381,1.119,2.5,2.5,2.5s2.5-1.119,2.5-2.5V87.169z"></path><path d="M85.49,87.169c0-1.381-1.119-2.5-2.5-2.5s-2.5,1.119-2.5,2.5v8.113c0,1.381,1.119,2.5,2.5,2.5s2.5-1.119,2.5-2.5V87.169z"></path><path d="M74.261,107.335c-1.381,0-2.5,1.119-2.5,2.5v8.113c0,1.381,1.119,2.5,2.5,2.5s2.5-1.119,2.5-2.5v-8.113  C76.761,108.455,75.641,107.335,74.261,107.335z"></path><path d="M82.99,107.335c-1.381,0-2.5,1.119-2.5,2.5v8.113c0,1.381,1.119,2.5,2.5,2.5s2.5-1.119,2.5-2.5v-8.113  C85.49,108.455,84.371,107.335,82.99,107.335z"></path><path d="M76.761,64.502c0-1.381-1.119-2.5-2.5-2.5s-2.5,1.119-2.5,2.5v8.113c0,1.381,1.119,2.5,2.5,2.5s2.5-1.119,2.5-2.5V64.502z"></path><path d="M85.49,64.502c0-1.381-1.119-2.5-2.5-2.5s-2.5,1.119-2.5,2.5v8.113c0,1.381,1.119,2.5,2.5,2.5s2.5-1.119,2.5-2.5V64.502z"></path><path d="M51.288,120.449c1.381,0,2.5-1.119,2.5-2.5v-8.113c0-1.381-1.119-2.5-2.5-2.5s-2.5,1.119-2.5,2.5v8.113  C48.788,119.33,49.907,120.449,51.288,120.449z"></path><path d="M42.558,120.449c1.381,0,2.5-1.119,2.5-2.5v-8.113c0-1.381-1.119-2.5-2.5-2.5s-2.5,1.119-2.5,2.5v8.113  C40.058,119.33,41.178,120.449,42.558,120.449z"></path><path d="M24.095,120.449h7.75c1.381,0,2.5-1.119,2.5-2.5s-1.119-2.5-2.5-2.5h-7.75c-1.381,0-2.5,1.119-2.5,2.5  S22.714,120.449,24.095,120.449z"></path><path d="M24.095,112.432h7.75c1.381,0,2.5-1.119,2.5-2.5s-1.119-2.5-2.5-2.5h-7.75c-1.381,0-2.5,1.119-2.5,2.5  S22.714,112.432,24.095,112.432z"></path><path d="M51.288,75.115c1.381,0,2.5-1.119,2.5-2.5v-8.113c0-1.381-1.119-2.5-2.5-2.5s-2.5,1.119-2.5,2.5v8.113  C48.788,73.996,49.907,75.115,51.288,75.115z"></path><path d="M42.558,75.115c1.381,0,2.5-1.119,2.5-2.5v-8.113c0-1.381-1.119-2.5-2.5-2.5s-2.5,1.119-2.5,2.5v8.113  C40.058,73.996,41.178,75.115,42.558,75.115z"></path><path d="M24.095,75.115h7.75c1.381,0,2.5-1.119,2.5-2.5s-1.119-2.5-2.5-2.5h-7.75c-1.381,0-2.5,1.119-2.5,2.5  S22.714,75.115,24.095,75.115z"></path><path d="M24.095,67.099h7.75c1.381,0,2.5-1.119,2.5-2.5s-1.119-2.5-2.5-2.5h-7.75c-1.381,0-2.5,1.119-2.5,2.5  C21.595,65.98,22.714,67.099,24.095,67.099z"></path><path d="M51.288,52.449c1.381,0,2.5-1.119,2.5-2.5v-8.113c0-1.381-1.119-2.5-2.5-2.5s-2.5,1.119-2.5,2.5v8.113  C48.788,51.33,49.907,52.449,51.288,52.449z"></path><path d="M42.558,52.449c1.381,0,2.5-1.119,2.5-2.5v-8.113c0-1.381-1.119-2.5-2.5-2.5s-2.5,1.119-2.5,2.5v8.113  C40.058,51.33,41.178,52.449,42.558,52.449z"></path><path d="M24.095,52.449h7.75c1.381,0,2.5-1.119,2.5-2.5s-1.119-2.5-2.5-2.5h-7.75c-1.381,0-2.5,1.119-2.5,2.5  S22.714,52.449,24.095,52.449z"></path><path d="M24.095,44.432h7.75c1.381,0,2.5-1.119,2.5-2.5s-1.119-2.5-2.5-2.5h-7.75c-1.381,0-2.5,1.119-2.5,2.5  S22.714,44.432,24.095,44.432z"></path><path d="M51.288,97.782c1.381,0,2.5-1.119,2.5-2.5v-8.113c0-1.381-1.119-2.5-2.5-2.5s-2.5,1.119-2.5,2.5v8.113  C48.788,96.663,49.907,97.782,51.288,97.782z"></path><path d="M42.558,97.782c1.381,0,2.5-1.119,2.5-2.5v-8.113c0-1.381-1.119-2.5-2.5-2.5s-2.5,1.119-2.5,2.5v8.113  C40.058,96.663,41.178,97.782,42.558,97.782z"></path><path d="M24.095,97.782h7.75c1.381,0,2.5-1.119,2.5-2.5s-1.119-2.5-2.5-2.5h-7.75c-1.381,0-2.5,1.119-2.5,2.5  S22.714,97.782,24.095,97.782z"></path><path d="M24.095,89.766h7.75c1.381,0,2.5-1.119,2.5-2.5s-1.119-2.5-2.5-2.5h-7.75c-1.381,0-2.5,1.119-2.5,2.5  S22.714,89.766,24.095,89.766z"></path><path d="M52.202,141.728c0,1.38,1.12,2.5,2.5,2.5h24.89c0.31-2.41,2.05-4.37,4.35-5h-29.24  C53.322,139.228,52.202,140.348,52.202,141.728z"></path><path d="M96.49,21.827c1.677,0,3.041-1.364,3.041-3.042s-1.364-3.042-3.041-3.042c-1.678,0-3.042,1.364-3.042,3.042  S94.812,21.827,96.49,21.827z"></path><path d="M82.99,21.827c1.677,0,3.041-1.364,3.041-3.042s-1.364-3.042-3.041-3.042c-1.678,0-3.042,1.364-3.042,3.042  S81.312,21.827,82.99,21.827z"></path><path d="M70.351,21.285c1.381,0,2.5-1.119,2.5-2.5s-1.119-2.5-2.5-2.5H26.017c-1.381,0-2.5,1.119-2.5,2.5s1.119,2.5,2.5,2.5H70.351z  "></path></svg>